<svg role="img" viewBox="0 0 24 24" xmlns="http://www.w3.org/2000/svg"><title>Amazon</title><path d="M.045 18.02c.072-.116.187-.124.348-.022 3.636 2.11 7.594 3.166 11.87 3.166 2.852 0 5.668-.533 8.447-1.595l.315-.14c.138-.06.234-.1.293-.13.226-.088.39-.046.493.126.112.18.009.345-.309.5-.443.218-.903.425-1.38.615-1.87.748-3.823 1.122-5.857 1.122-4.56 0-8.602-1.166-12.124-3.498-.166-.106-.24-.234-.096-.344zM23.97 16.638c-.16-.205-.778-.25-1.854-.136-.36.037-.64.076-.84.114-.2.04-.26-.04-.18-.236.55-1.17.19-3.236-.374-4.174-.14-.236-.302-.186-.484-.056-.136.098-.36.378-.36.378s-1.024 1.58-1.024 3.394c0 .282.042.512.126.692.14.296.474.496.832.634.382.15.846.264 1.214.264 1.17 0 2.08-.396 2.714-1.186.096-.118.084-.246-.08-.35-.16-.1-.436-.194-.69-.338z"/></svg>
